<svg width="18" height="18" viewBox="0 0 18 18" fill="none" xmlns="http://www.w3.org/2000/svg">
<path d="M14.3586 14.5489C15.7132 13.2447 16.5425 11.4891 16.6895 9.61454C15.9657 9.17163 15.1438 8.91429 14.2967 8.8654C13.4496 8.81651 12.6035 8.97756 11.8336 9.33427C12.9991 10.8961 13.8561 12.6659 14.3586 14.5489ZM13.2529 15.4372C12.8131 13.4727 11.9564 11.6255 10.7408 10.0208C9.77902 10.8087 9.13509 11.9182 8.92805 13.1441C8.72102 14.37 8.96488 15.6294 9.61454 16.6895C10.9139 16.5872 12.1659 16.1563 13.2529 15.4372ZM8.1489 16.6676C7.56125 15.3777 7.41623 13.9298 7.73638 12.549C8.05653 11.1682 8.82392 9.93182 9.91924 9.03214C9.61206 8.69469 9.289 8.37206 8.95115 8.06533C8.05314 9.15781 6.82007 9.92381 5.44279 10.2448C4.06551 10.5657 2.62084 10.4238 1.33239 9.84081C1.5209 11.5866 2.30178 13.215 3.54499 14.455C4.78249 15.6956 6.40697 16.4759 8.1489 16.6663V16.6676ZM1.31182 8.37903C2.37104 9.02283 3.62706 9.2626 4.84895 9.05427C6.07084 8.84594 7.17644 8.2035 7.96248 7.24509C6.36146 6.03663 4.5203 5.18488 2.56276 4.74707C1.84513 5.83235 1.41471 7.08202 1.31182 8.37903ZM3.45243 3.64142C5.32811 4.14209 7.09158 4.9946 8.64902 6.15357C9.00501 5.38618 9.1666 4.54294 9.11952 3.6983C9.07243 2.85366 8.81812 2.03361 8.37903 1.31054C6.50717 1.45935 4.75461 2.28852 3.45243 3.64142ZM9.8421 1.33239C10.6572 3.13101 10.6006 5.22791 9.67239 6.9841C10.1417 7.3998 10.5856 7.84329 11.0018 8.31218C11.8714 7.85474 12.8342 7.60222 13.8164 7.57392C14.7986 7.54562 15.7743 7.74229 16.6689 8.1489C16.4778 6.40726 15.6971 4.78326 14.4563 3.54628C13.2168 2.30286 11.5888 1.52153 9.84339 1.33239H9.8421ZM15.364 15.364C14.5282 16.1997 13.5361 16.8626 12.4442 17.3149C11.3522 17.7672 10.1819 18 9 18C7.8181 18 6.64778 17.7672 5.55585 17.3149C4.46392 16.8626 3.47177 16.1997 2.63604 15.364C1.80031 14.5282 1.13738 13.5361 0.685084 12.4442C0.232792 11.3522 -8.80582e-09 10.1819 0 9C8.80582e-09 7.8181 0.232792 6.64778 0.685084 5.55585C1.13738 4.46392 1.80031 3.47177 2.63604 2.63604C4.32387 0.948211 6.61305 -1.77842e-08 9 0C11.3869 1.77841e-08 13.6761 0.948212 15.364 2.63604C17.0518 4.32387 18 6.61305 18 9C18 11.3869 17.0518 13.6761 15.364 15.364Z" fill="white"/>
</svg>
