<svg width="18" height="18" viewBox="0 0 18 18" fill="none" xmlns="http://www.w3.org/2000/svg">
<path d="M17.409 10.5036C17.5015 9.99599 17.5511 9.47713 17.5511 8.95827C17.5511 7.80775 17.3255 6.69106 16.8811 5.64206C16.4525 4.6269 15.8366 3.7155 15.0538 2.9327C14.2775 2.15446 13.3573 1.5346 12.3444 1.10766C11.2932 0.663241 10.1787 0.437649 9.02821 0.437649C8.48679 0.437649 7.94312 0.489535 7.41523 0.591051C6.68479 0.203988 5.87091 0.00109682 5.04426 0C3.69747 0 2.42964 0.52563 1.47764 1.47763C1.00788 1.94498 0.635411 2.50082 0.381785 3.11301C0.128158 3.7252 -0.00159938 4.3816 1.48785e-05 5.04424C1.48785e-05 5.90149 0.221095 6.74521 0.633929 7.48966C0.55046 7.97243 0.505341 8.46647 0.505341 8.95827C0.505341 10.1088 0.730934 11.2255 1.17535 12.2745C1.60398 13.2896 2.21759 14.201 3.00039 14.9838C3.7832 15.7666 4.69459 16.3802 5.70975 16.8089C6.76101 17.2533 7.87544 17.4789 9.02596 17.4789C9.52677 17.4789 10.0276 17.4338 10.5194 17.3458C11.2751 17.7722 12.1279 18 13.0009 18C14.3477 18 15.6155 17.4766 16.5675 16.5224C17.5218 15.5704 18.0451 14.3025 18.0451 12.9558C18.0474 12.0985 17.8263 11.2525 17.409 10.5036ZM9.06205 14.1785C6.03461 14.1785 4.68105 12.6896 4.68105 11.5751C4.68105 11.0021 5.10291 10.6028 5.68494 10.6028C6.97984 10.6028 6.64596 12.464 9.06205 12.464C10.3006 12.464 10.9841 11.7917 10.9841 11.1036C10.9841 10.6908 10.7811 10.2306 9.96442 10.0298L7.27085 9.35756C5.10291 8.81389 4.70812 7.64081 4.70812 6.53992C4.70812 4.25241 6.86253 3.39291 8.88609 3.39291C10.7495 3.39291 12.9468 4.42386 12.9468 5.79546C12.9468 6.38426 12.4369 6.7249 11.8549 6.7249C10.7495 6.7249 10.9525 5.19539 8.72592 5.19539C7.62052 5.19539 7.00916 5.6962 7.00916 6.41133C7.00916 7.12646 7.88221 7.35431 8.6402 7.52801L10.6344 7.97017C12.8182 8.45745 13.3709 9.73205 13.3709 10.9322C13.3709 12.7888 11.9429 14.1785 9.06205 14.1785Z" fill="white"/>
</svg>
