<svg width="18" height="14" viewBox="0 0 18 14" fill="none" xmlns="http://www.w3.org/2000/svg">
<path d="M17.2397 1.87666C16.6345 2.14486 15.9843 2.32608 15.3007 2.40799C16.006 1.98597 16.5337 1.32175 16.7853 0.539281C16.1226 0.932877 15.3974 1.20993 14.6411 1.35838C14.1325 0.815358 13.4589 0.455433 12.7248 0.334487C11.9907 0.213541 11.2372 0.338342 10.5813 0.689512C9.92537 1.04068 9.40376 1.59858 9.09741 2.27658C8.79106 2.95458 8.71713 3.71475 8.88709 4.43907C7.5444 4.37166 6.2309 4.02267 5.03182 3.41476C3.83274 2.80686 2.77488 1.95362 1.9269 0.910414C1.63695 1.41057 1.47023 1.99047 1.47023 2.60806C1.46991 3.16403 1.60682 3.71148 1.86882 4.20185C2.13082 4.69221 2.50981 5.11033 2.97216 5.41909C2.43596 5.40203 1.91159 5.25715 1.44269 4.9965V5.03999C1.44263 5.81976 1.71236 6.57553 2.20611 7.17907C2.69985 7.78261 3.3872 8.19674 4.15152 8.35119C3.6541 8.48581 3.1326 8.50563 2.6264 8.40918C2.84204 9.08012 3.2621 9.66684 3.82777 10.0872C4.39344 10.5075 5.07639 10.7405 5.78103 10.7534C4.58487 11.6924 3.10763 12.2018 1.58694 12.1995C1.31756 12.1996 1.04842 12.1839 0.780884 12.1524C2.32447 13.1449 4.12132 13.6716 5.95644 13.6695C12.1686 13.6695 15.5646 8.52443 15.5646 4.06214C15.5646 3.91717 15.5609 3.77074 15.5544 3.62577C16.215 3.14806 16.7852 2.55651 17.2383 1.87884L17.2397 1.87666Z" fill="white"/>
</svg>
